<svg width="320" height="240" viewBox="0 0 320 240" fill="none" xmlns="http://www.w3.org/2000/svg">
  <defs>
    <radialGradient id="coreGlow" cx="0" cy="0" r="1" gradientUnits="userSpaceOnUse" gradientTransform="translate(160 120) rotate(90) scale(34 34)">
      <stop stop-color="#7BD3FF"/>
      <stop offset="0.55" stop-color="#3E96FF"/>
      <stop offset="1" stop-color="#15254F"/>
    </radialGradient>
    <linearGradient id="ringOuter" x1="72" y1="48" x2="252" y2="190" gradientUnits="userSpaceOnUse">
      <stop stop-color="#314B9A"/>
      <stop offset="1" stop-color="#101C49"/>
    </linearGradient>
    <linearGradient id="ringMid" x1="92" y1="66" x2="234" y2="176" gradientUnits="userSpaceOnUse">
      <stop stop-color="#385FC5"/>
      <stop offset="1" stop-color="#15255A"/>
    </linearGradient>
    <linearGradient id="ringInner" x1="118" y1="84" x2="208" y2="152" gradientUnits="userSpaceOnUse">
      <stop stop-color="#4E87FF"/>
      <stop offset="1" stop-color="#203770"/>
    </linearGradient>
    <linearGradient id="monoFill" x1="126" y1="88" x2="207" y2="165" gradientUnits="userSpaceOnUse">
      <stop stop-color="#102243"/>
      <stop offset="1" stop-color="#0A1530"/>
    </linearGradient>
    <filter id="blurGlow" x="86" y="48" width="148" height="144" filterUnits="userSpaceOnUse" color-interpolation-filters="sRGB">
      <feGaussianBlur stdDeviation="10"/>
    </filter>
  </defs>

  <g filter="url(#blurGlow)" opacity="0.9">
    <ellipse cx="160" cy="120" rx="34" ry="28" fill="url(#coreGlow)"/>
  </g>

  <ellipse cx="160" cy="120" rx="94" ry="64" fill="url(#ringOuter)"/>
  <ellipse cx="160" cy="120" rx="72" ry="48" fill="#7384BA" fill-opacity="0.18"/>
  <ellipse cx="160" cy="120" rx="70" ry="46" fill="url(#ringMid)"/>
  <ellipse cx="160" cy="120" rx="48" ry="31" fill="#8AA8FF" fill-opacity="0.16"/>
  <ellipse cx="160" cy="120" rx="46" ry="29" fill="url(#ringInner)"/>
  <ellipse cx="160" cy="120" rx="18" ry="14" fill="url(#coreGlow)"/>

  <path d="M157 72L200 146H176L165 128H146L135 146H111L154 72H157ZM155 110L148 122H163L156 110H155Z" fill="url(#monoFill)"/>
  <path d="M197 84H227L214 106H192L183 121L192 136H214L227 158H197L170 121L197 84Z" fill="url(#monoFill)"/>
  <ellipse cx="160" cy="120" rx="94" ry="64" stroke="#5673D8" stroke-opacity="0.42" stroke-width="4"/>
  <ellipse cx="160" cy="120" rx="70" ry="46" stroke="#7DA3FF" stroke-opacity="0.3" stroke-width="3"/>
</svg>
