<svg width="360" height="260" viewBox="0 0 360 260" fill="none" xmlns="http://www.w3.org/2000/svg">
  <defs>
    <radialGradient id="coreGlowV2" cx="0" cy="0" r="1" gradientUnits="userSpaceOnUse" gradientTransform="translate(180 124) rotate(90) scale(34 34)">
      <stop stop-color="#8CE4FF"/>
      <stop offset="0.45" stop-color="#4CB1FF"/>
      <stop offset="1" stop-color="#1B316F"/>
    </radialGradient>
    <linearGradient id="ringTopOuter" x1="90" y1="56" x2="272" y2="188" gradientUnits="userSpaceOnUse">
      <stop stop-color="#4A62C8"/>
      <stop offset="0.55" stop-color="#243D95"/>
      <stop offset="1" stop-color="#182865"/>
    </linearGradient>
    <linearGradient id="ringWallOuter" x1="180" y1="92" x2="180" y2="196" gradientUnits="userSpaceOnUse">
      <stop stop-color="#213E8C"/>
      <stop offset="1" stop-color="#0C1539"/>
    </linearGradient>
    <linearGradient id="ringTopMid" x1="108" y1="70" x2="252" y2="176" gradientUnits="userSpaceOnUse">
      <stop stop-color="#3F77F1"/>
      <stop offset="1" stop-color="#203C85"/>
    </linearGradient>
    <linearGradient id="ringWallMid" x1="180" y1="100" x2="180" y2="180" gradientUnits="userSpaceOnUse">
      <stop stop-color="#1A3478"/>
      <stop offset="1" stop-color="#0A1432"/>
    </linearGradient>
    <linearGradient id="ringTopInner" x1="126" y1="84" x2="236" y2="162" gradientUnits="userSpaceOnUse">
      <stop stop-color="#6B9BFF"/>
      <stop offset="1" stop-color="#2950A3"/>
    </linearGradient>
    <linearGradient id="ringWallInner" x1="180" y1="108" x2="180" y2="168" gradientUnits="userSpaceOnUse">
      <stop stop-color="#1C3878"/>
      <stop offset="1" stop-color="#0B1530"/>
    </linearGradient>
    <linearGradient id="monoFace" x1="142" y1="90" x2="234" y2="176" gradientUnits="userSpaceOnUse">
      <stop stop-color="#13294F"/>
      <stop offset="1" stop-color="#091326"/>
    </linearGradient>
    <linearGradient id="monoEdge" x1="150" y1="104" x2="226" y2="176" gradientUnits="userSpaceOnUse">
      <stop stop-color="#4D6ED4"/>
      <stop offset="1" stop-color="#1C306A"/>
    </linearGradient>
    <filter id="softGlow" x="108" y="56" width="144" height="136" filterUnits="userSpaceOnUse" color-interpolation-filters="sRGB">
      <feGaussianBlur stdDeviation="10"/>
    </filter>
    <filter id="shadow" x="54" y="44" width="252" height="176" filterUnits="userSpaceOnUse" color-interpolation-filters="sRGB">
      <feDropShadow dx="0" dy="10" stdDeviation="10" flood-color="#040812" flood-opacity="0.45"/>
    </filter>
  </defs>

  <g filter="url(#shadow)">
    <ellipse cx="180" cy="124" rx="96" ry="58" fill="#0A122C" fill-opacity="0.7"/>

    <path d="M84 124C84 91.967 126.98 66 180 66C233.02 66 276 91.967 276 124V150C276 182.033 233.02 208 180 208C126.98 208 84 182.033 84 150V124Z" fill="url(#ringWallOuter)"/>
    <ellipse cx="180" cy="124" rx="96" ry="58" fill="url(#ringTopOuter)"/>
    <ellipse cx="180" cy="118" rx="84" ry="46" fill="#233978"/>
    <path d="M96 118C96 92.595 133.608 72 180 72C226.392 72 264 92.595 264 118V138C264 163.405 226.392 184 180 184C133.608 184 96 163.405 96 138V118Z" fill="url(#ringWallMid)"/>
    <ellipse cx="180" cy="118" rx="84" ry="46" fill="url(#ringTopMid)"/>
    <ellipse cx="180" cy="114" rx="60" ry="31" fill="#3059B8"/>
    <path d="M120 114C120 96.879 146.863 83 180 83C213.137 83 240 96.879 240 114V130C240 147.121 213.137 161 180 161C146.863 161 120 147.121 120 130V114Z" fill="url(#ringWallInner)"/>
    <ellipse cx="180" cy="114" rx="60" ry="31" fill="url(#ringTopInner)"/>

    <ellipse cx="180" cy="112" rx="28" ry="18" fill="#244BA0"/>
    <g filter="url(#softGlow)">
      <ellipse cx="180" cy="112" rx="24" ry="16" fill="url(#coreGlowV2)"/>
    </g>
    <ellipse cx="176" cy="106" rx="8" ry="6" fill="#D8F6FF" fill-opacity="0.9"/>

    <path d="M154 76L198 153H178L167 133H146L136 153H111L154 76ZM156 112L149 124H164L157 112H156Z" fill="url(#monoEdge)"/>
    <path d="M151 72L195 149H175L164 129H143L133 149H108L151 72ZM153 108L146 120H161L154 108H153Z" fill="url(#monoFace)"/>
    <path d="M194 86H231L217 108H198L189 122L198 136H217L231 158H194L167 122L194 86Z" fill="url(#monoEdge)"/>
    <path d="M190 82H227L213 104H194L185 118L194 132H213L227 154H190L163 118L190 82Z" fill="url(#monoFace)"/>

    <path d="M108 92C126 76 151 66 180 66C209 66 234 76 252 92" stroke="#A7C4FF" stroke-opacity="0.34" stroke-width="4" stroke-linecap="round"/>
    <path d="M121 104C136 92 156 84 180 84C204 84 224 92 239 104" stroke="#C0D3FF" stroke-opacity="0.22" stroke-width="3" stroke-linecap="round"/>
    <ellipse cx="180" cy="124" rx="96" ry="58" stroke="#5B7CE0" stroke-opacity="0.46" stroke-width="4"/>
    <ellipse cx="180" cy="118" rx="84" ry="46" stroke="#80A5FF" stroke-opacity="0.3" stroke-width="3"/>
    <ellipse cx="180" cy="114" rx="60" ry="31" stroke="#9EBBFF" stroke-opacity="0.24" stroke-width="2"/>
  </g>
</svg>
