<svg width="256" height="256" viewBox="0 0 256 256" fill="none" xmlns="http://www.w3.org/2000/svg">
  <defs>
    <linearGradient id="bg" x1="24" y1="18" x2="230" y2="238" gradientUnits="userSpaceOnUse">
      <stop stop-color="#0D1624"/>
      <stop offset="1" stop-color="#060A11"/>
    </linearGradient>
    <linearGradient id="flow" x1="74" y1="128" x2="186" y2="128" gradientUnits="userSpaceOnUse">
      <stop stop-color="#67E8F9"/>
      <stop offset="1" stop-color="#B7FF6A"/>
    </linearGradient>
  </defs>
  <rect x="8" y="8" width="240" height="240" rx="52" fill="url(#bg)"/>
  <rect x="20" y="20" width="216" height="216" rx="40" stroke="#67E8F9" stroke-opacity="0.14" stroke-width="2"/>
  <path d="M54 100L82 128L54 156" stroke="#F0FEFF" stroke-width="18" stroke-linecap="round" stroke-linejoin="round"/>
  <rect x="90" y="108" width="28" height="40" rx="14" fill="#67E8F9"/>
  <rect x="126" y="96" width="28" height="64" rx="14" fill="#D9F6FF"/>
  <rect x="162" y="108" width="28" height="40" rx="14" fill="#B7FF6A"/>
  <path d="M78 128H178" stroke="url(#flow)" stroke-width="6" stroke-linecap="round"/>
  <path d="M194 102V154" stroke="#FFC95D" stroke-width="10" stroke-linecap="round"/>
  <path d="M194 154L212 136" stroke="#FFC95D" stroke-width="10" stroke-linecap="round"/>
  <path d="M194 154L176 136" stroke="#FFC95D" stroke-width="10" stroke-linecap="round"/>
  <circle cx="104" cy="128" r="4" fill="#081015"/>
  <circle cx="140" cy="128" r="4" fill="#081015"/>
  <circle cx="176" cy="128" r="4" fill="#081015"/>
  <path d="M42 190H90" stroke="#67E8F9" stroke-opacity="0.16" stroke-width="4" stroke-linecap="round"/>
  <path d="M164 190H214" stroke="#B7FF6A" stroke-opacity="0.16" stroke-width="4" stroke-linecap="round"/>
</svg>
