<svg width="256" height="256" viewBox="0 0 256 256" fill="none" xmlns="http://www.w3.org/2000/svg">
  <defs>
    <linearGradient id="bg" x1="22" y1="18" x2="226" y2="240" gradientUnits="userSpaceOnUse">
      <stop stop-color="#11151C"/>
      <stop offset="1" stop-color="#070B10"/>
    </linearGradient>
    <linearGradient id="slab" x1="82" y1="186" x2="180" y2="80" gradientUnits="userSpaceOnUse">
      <stop stop-color="#EAF4FF"/>
      <stop offset="1" stop-color="#C8E5FF"/>
    </linearGradient>
    <linearGradient id="crystal" x1="128" y1="52" x2="128" y2="102" gradientUnits="userSpaceOnUse">
      <stop stop-color="#B7FF6A"/>
      <stop offset="1" stop-color="#67E8F9"/>
    </linearGradient>
  </defs>
  <rect x="8" y="8" width="240" height="240" rx="52" fill="url(#bg)"/>
  <rect x="20" y="20" width="216" height="216" rx="40" stroke="#D8E7F2" stroke-opacity="0.14" stroke-width="2"/>
  <path d="M128 48L150 72L128 96L106 72L128 48Z" fill="url(#crystal)"/>
  <rect x="72" y="100" width="112" height="18" rx="9" fill="url(#slab)"/>
  <rect x="80" y="126" width="96" height="16" rx="8" fill="#D9F0FF" fill-opacity="0.92"/>
  <rect x="88" y="150" width="80" height="14" rx="7" fill="#C8E5FF" fill-opacity="0.86"/>
  <rect x="96" y="172" width="64" height="12" rx="6" fill="#B9DAFF" fill-opacity="0.82"/>
  <path d="M58 102V182" stroke="#67E8F9" stroke-opacity="0.18" stroke-width="3" stroke-linecap="round"/>
  <circle cx="58" cy="104" r="4" fill="#67E8F9"/>
  <circle cx="58" cy="126" r="4" fill="#67E8F9" fill-opacity="0.88"/>
  <circle cx="58" cy="148" r="4" fill="#67E8F9" fill-opacity="0.72"/>
  <circle cx="58" cy="170" r="4" fill="#67E8F9" fill-opacity="0.56"/>
  <circle cx="58" cy="182" r="4" fill="#B7FF6A"/>
  <path d="M194 102V182" stroke="#B7FF6A" stroke-opacity="0.16" stroke-width="3" stroke-linecap="round"/>
  <circle cx="194" cy="182" r="4" fill="#B7FF6A"/>
  <path d="M94 206H162" stroke="#FFFFFF" stroke-opacity="0.14" stroke-width="4" stroke-linecap="round"/>
</svg>
